<?xml version="1.0" standalone="no"?>
<!DOCTYPE svg PUBLIC "-//W3C//DTD SVG 20010904//EN"
 "http://www.w3.org/TR/2001/REC-SVG-20010904/DTD/svg10.dtd">
<svg version="1.0" xmlns="http://www.w3.org/2000/svg"
 width="1494.000000pt" height="1663.000000pt" viewBox="0 0 1494.000000 1663.000000"
 preserveAspectRatio="xMidYMid meet">

<g transform="translate(0.000000,1663.000000) scale(0.100000,-0.100000)"
fill="#000000" stroke="none">
<path d="M5055 12179 c-594 -86 -1064 -549 -1160 -1144 -22 -134 -22 -4661 0
-4805 88 -581 517 -1032 1108 -1162 l102 -23 2545 0 c2446 0 2548 1 2630 19
496 108 857 508 911 1006 6 63 9 899 7 2445 -3 2210 -4 2355 -21 2440 -39 196
-126 410 -228 563 -27 40 -49 74 -49 76 0 2 -26 32 -57 67 -248 274 -508 426
-866 506 -62 14 -184 17 -892 20 l-820 3 55 -23 c108 -46 317 -157 420 -224
86 -56 120 -72 185 -87 381 -88 714 -338 967 -726 67 -103 185 -320 173 -320
-10 0 -148 96 -242 169 -50 39 -159 135 -241 213 -82 79 -164 152 -183 162
l-33 20 22 -30 c330 -431 573 -974 796 -1774 92 -333 219 -840 260 -1037 75
-366 137 -791 161 -1113 3 -47 8 -107 11 -135 11 -122 21 -528 17 -720 -3
-115 -5 -211 -6 -212 -1 -1 -34 12 -72 29 -188 80 -510 173 -690 198 -44 6
-91 13 -104 15 -13 2 -73 7 -135 10 -61 4 -130 8 -154 10 -29 2 -48 -2 -61
-13 -10 -10 -70 -87 -133 -172 -182 -245 -324 -402 -421 -464 -353 -227 -755
-372 -1122 -404 -323 -29 -670 35 -946 174 l-89 44 -227 -154 c-270 -181 -347
-224 -472 -266 -380 -127 -717 67 -984 570 -318 597 -581 1713 -625 2645 -73
1575 361 2708 1278 3337 117 81 284 174 410 229 52 23 97 43 99 45 9 8 -1067
1 -1124 -7z m5595 -582 l50 -25 -48 -31 c-26 -17 -58 -44 -71 -61 l-23 -32
-33 39 c-18 21 -54 49 -80 62 l-47 23 50 29 c28 16 60 42 72 58 l21 31 30 -35
c16 -18 52 -45 79 -58z"/>
<path d="M8470 11873 c-74 -8 -178 -46 -226 -82 -89 -67 -133 -170 -105 -244
16 -41 81 -96 132 -111 67 -20 109 -7 153 48 108 130 352 154 646 61 208 -66
348 -154 540 -340 159 -154 372 -327 385 -313 6 6 -85 164 -148 258 -70 104
-116 160 -221 268 -232 239 -471 368 -799 431 -104 20 -283 32 -357 24z"/>
<path d="M5980 11455 c-141 -32 -347 -121 -467 -204 -199 -135 -368 -342 -487
-592 -51 -108 -126 -312 -126 -344 0 -36 173 181 296 371 146 226 359 395 594
472 154 51 257 47 350 -13 30 -19 67 -35 83 -35 74 0 158 89 161 170 1 57 -45
117 -117 154 -48 24 -72 30 -140 33 -47 1 -110 -4 -147 -12z"/>
<path d="M8665 10710 c-264 -47 -516 -236 -621 -464 -51 -111 -66 -182 -71
-336 -6 -165 8 -264 58 -415 50 -149 103 -239 199 -336 73 -74 99 -93 186
-136 l100 -49 -54 -24 c-30 -13 -81 -43 -113 -67 -68 -50 -155 -161 -140 -176
6 -6 12 -9 14 -6 85 121 158 184 263 229 65 27 70 28 208 23 77 -3 160 -1 183
5 69 16 268 -36 442 -114 68 -32 100 -36 85 -13 -13 22 -221 104 -341 134
l-73 19 78 36 c152 72 265 186 343 345 66 137 89 236 96 417 4 115 2 168 -12
245 -74 416 -329 675 -678 688 -56 2 -124 0 -152 -5z m215 -30 c0 -5 -7 -10
-15 -10 -30 0 -98 -42 -146 -90 -52 -52 -107 -152 -135 -246 -23 -74 -26 -282
-5 -364 36 -147 134 -286 239 -337 122 -60 259 -29 361 83 105 114 158 285
148 469 -6 110 -24 179 -69 270 l-29 60 26 -25 c15 -14 47 -55 71 -92 187
-281 212 -723 59 -1028 -83 -166 -202 -276 -374 -345 -69 -29 -68 -28 -211
-22 -58 3 -131 1 -164 -4 -68 -11 -118 1 -231 59 -95 49 -226 180 -277 278
-88 167 -140 391 -133 574 8 225 86 402 243 552 115 110 245 180 397 213 72
16 245 19 245 5z m-41 -206 c44 -55 14 -155 -41 -141 -49 13 -62 104 -21 149
22 25 38 23 62 -8z m-79 -298 c0 -3 -12 -53 -26 -111 -14 -59 -23 -118 -20
-131 7 -28 35 -38 70 -25 22 9 26 8 26 -7 0 -31 -38 -62 -75 -62 -83 0 -124
145 -71 249 22 43 66 91 82 91 8 0 14 -2 14 -4z m8 -1203 c-16 -2 -40 -2 -55
0 -16 2 -3 4 27 4 30 0 43 -2 28 -4z"/>
<path d="M5858 10690 c-297 -74 -533 -303 -607 -591 -60 -234 -18 -533 107
-773 72 -137 200 -263 320 -313 l37 -16 -100 -22 c-178 -40 -420 -134 -398
-156 6 -6 31 0 75 20 129 58 329 116 435 127 35 4 74 1 98 -6 22 -7 101 -13
177 -15 130 -3 139 -5 204 -36 67 -31 179 -130 215 -188 9 -15 20 -21 27 -17
31 19 -112 168 -214 223 -36 20 -53 34 -44 37 193 61 330 158 425 302 253 381
181 1022 -145 1293 -163 136 -392 185 -612 131z m232 -4 c0 -2 -24 -16 -54
-30 -103 -50 -194 -178 -233 -326 -23 -89 -23 -273 0 -360 57 -212 204 -360
359 -360 157 0 286 114 355 313 37 107 43 281 14 397 -22 88 -55 161 -99 220
l-27 35 32 -23 c110 -79 220 -260 270 -447 33 -127 42 -362 17 -489 -35 -180
-114 -338 -224 -446 -81 -79 -164 -129 -276 -166 -84 -27 -87 -27 -167 -14
-45 8 -131 14 -192 15 -89 1 -119 6 -158 23 -130 59 -258 180 -326 311 -140
268 -170 609 -75 847 100 248 344 442 614 489 73 13 170 19 170 11z m40 -236
c5 -10 10 -34 10 -52 0 -77 -67 -107 -96 -44 -42 87 41 180 86 96z m-110 -258
c0 -11 -9 -54 -20 -97 -35 -135 -22 -181 43 -157 17 6 33 9 35 7 10 -9 -17
-54 -42 -70 -22 -14 -28 -15 -59 -1 -47 19 -69 63 -69 135 0 65 20 116 63 166
35 39 49 44 49 17z m-52 -1219 c-16 -2 -40 -2 -55 0 -16 2 -3 4 27 4 30 0 43
-2 28 -4z"/>
<path d="M8435 8155 c-38 -7 -145 -36 -236 -64 -305 -95 -527 -122 -840 -102
-383 23 -754 11 -1025 -34 -159 -27 -253 -56 -402 -126 -430 -201 -481 -435
-147 -674 332 -237 1020 -380 1663 -345 576 31 1010 156 1367 393 249 165 447
372 507 530 15 39 19 70 16 124 -3 62 -7 77 -34 110 -72 89 -215 154 -413 187
-114 19 -355 20 -456 1z m490 -184 l50 -26 8 -84 c4 -46 6 -85 4 -87 -1 -1
-64 2 -140 9 -235 19 -551 -10 -1181 -108 -357 -55 -545 -94 -746 -151 -267
-77 -591 -217 -839 -364 -119 -70 -126 -72 -150 -59 -33 19 -70 110 -78 192
-19 210 135 349 482 437 313 79 514 91 818 46 312 -46 547 -45 815 5 141 25
217 47 477 134 121 41 245 79 275 84 76 13 146 4 205 -28z m2 -220 c29 -4 56
-10 60 -14 9 -10 -15 -238 -36 -335 -11 -53 -25 -88 -37 -98 -68 -53 -243
-162 -328 -203 -112 -55 -295 -126 -303 -118 -10 11 -181 722 -175 728 6 6
134 21 352 42 69 7 416 5 467 -2z m-761 -411 l91 -370 -31 -9 c-71 -23 -239
-62 -346 -80 -138 -23 -333 -45 -351 -39 -7 2 -57 165 -114 374 -94 339 -100
370 -84 376 20 8 683 114 729 117 12 1 35 -80 106 -369z m-872 223 c3 -10 48
-175 101 -367 75 -274 93 -351 83 -358 -15 -10 -522 -2 -608 10 l-55 7 -91
270 c-76 224 -89 271 -77 278 59 35 549 175 615 176 17 1 28 -5 32 -16z m-599
-434 c48 -143 85 -262 82 -265 -9 -9 -259 36 -400 71 -130 33 -297 89 -361
122 -28 14 -28 15 -8 29 41 28 200 117 297 167 77 38 291 136 302 137 1 0 40
-117 88 -261z"/>
</g>
</svg>
